<?xml version="1.0" standalone="no"?>
<!DOCTYPE svg PUBLIC "-//W3C//DTD SVG 20010904//EN"
 "http://www.w3.org/TR/2001/REC-SVG-20010904/DTD/svg10.dtd">
<svg version="1.0" xmlns="http://www.w3.org/2000/svg"
 width="500.000000pt" height="500.000000pt" viewBox="0 0 500.000000 500.000000"
 preserveAspectRatio="xMidYMid meet">

<g transform="translate(0.000000,500.000000) scale(0.100000,-0.100000)"
fill="#000000" stroke="none">
<path d="M600 3491 l0 -40 58 30 c41 21 77 31 130 36 l72 6 0 -377 0 -376 40
0 40 0 0 375 0 375 40 0 c62 0 136 -19 175 -46 20 -13 38 -24 40 -24 3 0 5 18
5 40 l0 40 -300 0 -300 0 0 -39z"/>
<path d="M1209 3183 c0 -191 -2 -363 -3 -380 -2 -32 -2 -33 40 -33 l43 0 -2
378 -2 377 -37 3 -38 3 -1 -348z"/>
<path d="M1300 3150 l0 -380 215 0 215 0 0 23 c0 12 3 40 6 62 l6 40 -26 -37
c-44 -63 -87 -78 -221 -78 l-115 0 0 241 0 242 23 -34 c23 -34 34 -43 140
-104 l57 -34 0 38 0 38 -60 6 c-130 14 -159 57 -160 236 l0 113 118 -4 c117
-5 156 -15 210 -54 22 -16 22 -16 22 25 l0 41 -215 0 -215 0 0 -380z"/>
<path d="M1760 3149 l0 -380 41 3 41 3 -1 290 c0 256 1 287 14 265 16 -29 19
-22 6 13 -5 14 -12 59 -15 101 l-5 76 77 0 c98 0 145 -13 189 -54 31 -28 37
-40 41 -88 7 -94 -29 -160 -103 -186 -30 -10 -30 -10 -4 -11 60 -2 94 -59 115
-191 17 -115 65 -181 148 -205 27 -8 63 -15 80 -15 31 0 31 1 -11 19 -47 22
-75 63 -129 191 -45 108 -85 163 -133 187 l-40 20 38 12 c146 43 171 222 41
288 -60 31 -140 43 -277 43 l-113 0 0 -381z"/>
<path d="M2420 3151 l0 -381 40 0 40 0 0 293 c0 211 3 288 11 277 9 -12 10
-11 4 5 -4 11 -9 55 -12 99 l-6 78 94 -4 c141 -5 204 -44 216 -136 7 -53 -12
-124 -41 -151 -12 -11 -40 -27 -61 -35 -37 -14 -38 -15 -12 -15 65 -2 97 -49
117 -171 15 -92 38 -148 76 -184 32 -29 110 -57 158 -55 l31 1 -32 9 c-43 12
-72 53 -136 190 -58 123 -103 184 -151 204 l-30 13 37 10 c84 23 127 80 127
167 0 37 -6 51 -35 84 -53 58 -103 72 -282 78 l-153 6 0 -382z"/>
<path d="M3328 3469 c-50 -89 -128 -247 -127 -256 0 -5 26 44 59 107 54 107
59 113 68 90 6 -14 40 -94 76 -179 51 -118 64 -156 54 -163 -10 -6 -9 -8 3 -8
16 0 29 -28 122 -252 15 -36 18 -38 61 -38 l45 0 -28 68 c-195 458 -284 669
-291 681 -5 9 -18 -7 -42 -50z"/>
<path d="M3950 3394 c-41 -37 -140 -176 -140 -197 0 -6 17 17 38 51 48 80 108
151 139 165 21 9 27 8 39 -8 8 -10 14 -14 14 -9 0 14 -22 34 -37 34 -7 0 -31
-16 -53 -36z"/>
<path d="M4041 3369 c-1 -26 27 -113 44 -134 15 -19 15 -19 4 5 -7 14 -21 52
-30 85 -10 33 -18 53 -18 44z"/>
<path d="M3712 3318 c8 -7 25 -29 37 -49 11 -20 28 -42 36 -49 9 -7 -3 15 -26
49 -22 33 -46 61 -52 61 -6 0 -4 -6 5 -12z"/>
<path d="M2520 3317 c-1 -34 85 -127 118 -127 10 1 5 6 -13 14 -34 15 -65 47
-88 91 -9 17 -16 26 -17 22z"/>
<path d="M3676 3303 c-6 -14 -5 -15 5 -6 7 7 10 15 7 18 -3 3 -9 -2 -12 -12z"/>
<path d="M1880 3272 c0 -10 69 -77 73 -71 2 2 -14 21 -35 42 -21 20 -38 33
-38 29z"/>
<path d="M3656 3265 c-9 -26 -7 -32 5 -12 6 10 9 21 6 23 -2 3 -7 -2 -11 -11z"/>
<path d="M3635 3200 c-4 -17 -5 -34 -2 -36 2 -3 7 10 11 27 8 42 0 50 -9 9z"/>
<path d="M4118 3185 c10 -16 22 -37 25 -45 5 -13 6 -13 6 0 1 8 -11 29 -25 45
l-26 30 20 -30z"/>
<path d="M3172 3155 c-17 -37 -14 -45 4 -12 9 16 14 31 11 33 -2 2 -9 -7 -15
-21z"/>
<path d="M3623 3115 c0 -22 2 -30 4 -17 2 12 2 30 0 40 -3 9 -5 -1 -4 -23z"/>
<path d="M4153 3085 c0 -22 2 -30 4 -17 2 12 2 30 0 40 -3 9 -5 -1 -4 -23z"/>
<path d="M3131 3054 c-12 -31 -20 -58 -18 -61 2 -2 14 22 25 54 12 31 20 59
18 61 -2 2 -14 -22 -25 -54z"/>
<path d="M3782 3090 c0 -14 2 -19 5 -12 2 6 2 18 0 25 -3 6 -5 1 -5 -13z"/>
<path d="M3632 3050 c0 -14 2 -19 5 -12 2 6 2 18 0 25 -3 6 -5 1 -5 -13z"/>
<path d="M3390 3050 c-11 -8 -7 -9 15 -4 37 8 45 14 19 14 -10 0 -26 -5 -34
-10z"/>
<path d="M3748 3053 c7 -2 12 -22 12 -44 0 -24 4 -38 10 -34 6 3 10 24 10 46
0 34 -3 39 -22 38 -13 0 -17 -3 -10 -6z"/>
<path d="M3308 2998 c-24 -24 -30 -31 -14 -17 17 14 42 33 56 42 13 10 19 17
13 17 -6 0 -31 -19 -55 -42z"/>
<path d="M4140 3025 c0 -9 -7 -18 -15 -21 -8 -4 -12 -10 -9 -16 9 -15 -35 -56
-74 -69 -28 -9 -36 -9 -43 2 -6 9 -9 10 -9 2 0 -38 75 -17 120 33 27 31 33 33
53 23 54 -28 107 -96 107 -138 0 -11 -15 -32 -32 -46 -18 -15 -26 -24 -18 -20
30 15 60 49 60 67 0 41 -62 119 -117 147 -15 7 -20 17 -16 31 3 11 3 20 -1 20
-3 0 -6 -7 -6 -15z"/>
<path d="M3640 3011 c0 -8 21 -35 48 -60 26 -26 62 -70 81 -99 18 -29 45 -61
59 -72 27 -21 62 -27 62 -9 0 5 6 7 13 4 6 -4 3 2 -9 12 -39 35 -92 112 -99
144 -6 27 -9 30 -17 15 -7 -13 0 -30 33 -73 23 -31 42 -62 42 -69 0 -7 5 -12
10 -11 5 1 12 -4 14 -10 6 -16 -12 -17 -38 -2 -26 13 -99 126 -99 152 0 20
-43 60 -68 64 -8 1 -19 8 -23 15 -7 10 -9 10 -9 -1z m75 -51 c28 -31 8 -37
-23 -7 -19 20 -22 27 -11 27 9 0 24 -9 34 -20z"/>
<path d="M4032 2973 c-15 -16 -18 -20 -6 -10 12 10 34 22 50 27 25 7 26 8 7 9
-13 1 -35 -11 -51 -26z"/>
<path d="M3101 2964 c0 -11 3 -14 6 -6 3 7 2 16 -1 19 -3 4 -6 -2 -5 -13z"/>
<path d="M3755 2950 c3 -5 8 -10 11 -10 2 0 4 5 4 10 0 6 -5 10 -11 10 -5 0
-7 -4 -4 -10z"/>
<path d="M3091 2924 c0 -11 3 -14 6 -6 3 7 2 16 -1 19 -3 4 -6 -2 -5 -13z"/>
<path d="M3215 2866 c-39 -86 -64 -106 -100 -82 -18 12 -25 27 -28 63 l-4 48
1 -49 c1 -41 5 -52 29 -69 27 -21 27 -21 54 -1 23 17 101 164 87 164 -3 0 -20
-33 -39 -74z"/>
<path d="M4140 2754 c-31 -8 -37 -13 -20 -13 14 0 39 6 55 14 37 17 24 16 -35
-1z"/>
<path d="M3983 2743 c9 -2 25 -2 35 0 9 3 1 5 -18 5 -19 0 -27 -2 -17 -5z"/>
<path d="M1730 2605 l0 -55 38 1 c36 1 36 2 7 8 -41 8 -47 41 -8 42 28 1 28 1
3 8 -34 10 -31 34 5 42 29 6 29 7 -7 8 l-38 1 0 -55z"/>
<path d="M1910 2645 c-15 -18 -7 -29 31 -49 29 -15 30 -30 2 -34 -13 -2 -23 1
-23 7 0 6 -5 11 -11 11 -8 0 -7 -5 1 -16 8 -8 25 -14 39 -12 36 4 35 39 -1 56
-16 7 -28 17 -28 22 0 15 21 23 33 11 17 -17 31 -13 17 4 -16 19 -44 19 -60 0z"/>
<path d="M2093 2653 c17 -4 21 -22 17 -75 -1 -16 3 -28 9 -28 6 0 11 21 11 49
0 39 4 51 18 54 9 3 -3 5 -28 5 -25 0 -37 -2 -27 -5z"/>
<path d="M2273 2605 c0 -33 2 -45 4 -27 2 18 2 45 0 60 -2 15 -4 0 -4 -33z"/>
<path d="M2402 2608 l-2 -58 33 1 c29 2 30 2 5 6 -25 4 -27 9 -31 56 l-3 52
-2 -57z"/>
<path d="M2577 2642 c-34 -37 -11 -92 38 -92 50 0 73 60 37 93 -24 22 -55 21
-75 -1z m63 -10 c38 -31 7 -82 -40 -67 -26 8 -33 35 -15 61 19 29 26 29 55 6z"/>
</g>
</svg>
